<?xml version="1.0" encoding="iso-8859-1"?>
<!-- Generator: Adobe Illustrator 16.0.0, SVG Export Plug-In . SVG Version: 6.00 Build 0)  -->
<svg version="1.1" id="Capa_1" xmlns="http://www.w3.org/2000/svg"
	 viewBox="0 0 569.659 569.658"
	 xml:space="preserve">
<g>
	<g fill="#000000">
		<path d="M512.112,127.667c16.2-17.1,22.3-49.3,18.101-69.8c-4.9-22.3-23.9-38.2-44.7-45c-13.8-4.6-30-4.6-43.8,0.6
			c-11.301-7-25.101-10.1-38.2-9.2c-10.7,0.6-20.5,3.7-29.4,8.6c-15.3-8.9-35.2-8.9-52-5.5c-5.5,1.2-12.2,3.4-19,7l0,0
			c-15.899-16.5-41.9-16.5-62.4-11.3c-6.4,1.5-13.5,4.6-20.2,8.3c-17.1-7-37.6-8-54.5-6.4c-7.7,0.6-15.9,2.1-23.9,4.3
			c-12.2-4.6-26.6-4-39.8-0.6c-37.3,9.2-90.6,56.9-49,93.9c5.5,4.9,11.3,8.3,18.1,11.3c-7.6,7.3-12.9,15.9-14.7,26
			c-1.2,0.9-2.1,2.4-2.8,4c-18.1,67.3-14.7,135.6-11.3,204.4c2.4,51.699-4,106.199,21.4,153.3c39.5,72.8,156.4,59.1,223.7,62.7
			c70.399,4,184.8,25.1,220.3-56.601c22.3-51.7,16.8-124.5,16.5-179.3C523.412,263.567,524.012,191.667,512.112,127.667z
			 M480.012,32.267c14.399,4.9,26,16.2,30,31.2c2.399,9.2,0.3,18.7-2.4,27.2c-1.8,5.8-5.2,11-8.6,16.2c-9.5-8.3-22.3-13.8-35.8-17.1
			c6.699-19,3.699-44.1-5.801-60C464.712,28.867,472.612,30.067,480.012,32.267z M437.412,37.167c0.601,0.6,1.2,1.2,1.801,2.1
			c10.1,14.7,4.899,30.3,3.399,45.9c-6.1-0.9-11.899-1.8-17.399-2.8C426.412,66.467,423.712,48.467,437.412,37.167z M402.912,23.967
			c6.4-0.3,13.2,0.3,19.301,2.8c-12.5,14.4-16.2,36.7-8.601,54.2c-5.8-0.9-11.6-1.5-17.399-2.4c4.3-17.1,1.199-37-8.301-51.4
			C392.812,25.467,397.712,24.567,402.912,23.967z M370.412,37.167c8.9,10.7,5.801,25.4,4.301,39.2c-6.101-0.6-12.2-0.9-18.4-1.2
			C355.712,59.767,360.612,46.367,370.412,37.167z M327.012,26.767c8.6-1.8,19-2.1,27.8,0.6c-11.3,12.5-16.8,29.4-13.2,46.5
			c-8-0.3-16.2-0.9-24.2-0.9c2.4-13.5,0.601-29.4-4.899-42.2C317.512,28.867,322.412,27.667,327.012,26.767z M293.612,39.867
			c3.7,10.1,0.9,21.7-0.3,32.7c-4.9,0-10.1,0.3-15,0.3C273.712,58.567,281.712,47.567,293.612,39.867z M245.612,23.067
			c11.9-3.1,26.3-3.7,37,3.1c-17.1,13.2-29.7,30.6-19.6,46.8c-2.8,0-5.8,0-8.6,0c-1.8,0-4,0-6.1,0.3c5.5-16.2,2.8-35.8-8.6-48.3
			C241.912,24.267,243.712,23.667,245.612,23.067z M218.712,35.567c0.6,0.3,1.5,0.9,2.1,1.2c15,10.1,7.7,24.5,2.1,37.6
			c-5.5,0.3-11.3,0.6-17.4,0.9C193.912,59.467,204.012,45.367,218.712,35.567z M165.412,26.167c10.7-1.2,22-0.9,33,1.5
			c-14.4,14.7-21.4,33-8.6,49c-7,0.6-14.4,1.5-21.7,2.4c4-18.4,3.7-38.2-5.2-52.3C163.912,26.467,164.812,26.467,165.412,26.167z
			 M114.612,46.967c5.5-7,14.1-11.6,22.9-15c0.9,0.6,1.5,0.9,2.1,1.5c5.5,4.6,7.7,11.9,8,20.8c0.3,10.1-2.1,19.3-4.9,28.8
			c-7.7,1.5-15,3.4-22,5.5C111.912,75.667,104.212,60.067,114.612,46.967z M62.912,85.167c-4.9-6.7-4.9-11.9-3.1-18.7
			c4.3-13.8,21.4-26,35.8-32.1c2.1-0.9,4.3-1.8,6.4-2.4c-1.8,2.1-3.4,4-4.9,6.4c-12.2,19-3.7,39.5,10.1,54.5
			c-8.3,3.1-16.2,6.4-23,10.7C76.112,98.667,68.112,92.867,62.912,85.167z M490.712,438.567c-5.5,64-25.7,94.899-91.2,100.7
			c-37,3.399-75.3-1.2-112.3-3.7c-67.3-4.3-175.3,12.2-206.9-64.9c-18.4-45-9.2-111.1-11.6-159.399c-1.5-28.5-2.1-56.9-1.8-85.101
			c35.2,15,156.7-6.4,176.3-8c52-4,104.3-7.7,156.7-8.3c18.7-0.3,37.301,0.3,56,2.1c10.4,0.9,27.801,7.7,27.801,7.3
			c0.899,5.2,5.5,7.6,10.399,8C498.312,297.867,496.512,370.967,490.712,438.567z"/>
		<path d="M261.512,460.967c-21.7-1.8-43.8-1.8-65.5-1.199c42.5-44.4,87.8-114.4,54.2-164c-37.6-55.7-125.2-0.9-116.3,56.6
			c1.5,9.5,18.1,9.5,19.3,0c3.4-24.2,16.5-41.6,40.1-49.6c28.8-9.801,44.7,16.5,38.9,41.899c-9.8,45-49,91.8-84.1,120.3
			c-10.4,8.301-1.5,25.101,10.4,25.101c34.3,0,69.2,2.1,103.4-0.9C279.212,486.967,279.212,462.467,261.512,460.967z"/>
		<path d="M411.412,330.268c-16.199-19-41-13.2-61.5-2.801c0-10.1,0-20.199,0-30c22,0.9,46.801,2.4,64-10.699
			c6.7-5.2,4.601-15.601-4.3-16.2c-24.5-1.5-49.3-0.6-73.7-1.5c-7.6-0.3-14.1,6.7-14.1,14.1c-0.3,23.3-0.3,46.8-0.3,70.101
			c0,10.1,12.5,19,21.399,12.199c10.7-7.699,35.2-27.5,48.301-14.699c10.699,10.399,8,34.3,5.5,47.1c-3.101,17.4-9.5,35.8-21.7,48.7
			c-14.4,15-27.2-4.601-37-14.4c-11.3-11.3-28.5,3.101-21.4,16.5c12.9,24.8,40.4,39.8,67,27.5c24.8-11.6,36.7-45.899,41.3-70.7
			C429.512,379.867,428.912,350.467,411.412,330.268z"/>
	</g>
</g>
<g>
</g>
<g>
</g>
<g>
</g>
<g>
</g>
<g>
</g>
<g>
</g>
<g>
</g>
<g>
</g>
<g>
</g>
<g>
</g>
<g>
</g>
<g>
</g>
<g>
</g>
<g>
</g>
<g>
</g>
</svg>
